<?xml version="1.0" encoding="utf-8"?>
<!-- Generator: Adobe Illustrator 15.0.0, SVG Export Plug-In . SVG Version: 6.00 Build 0)  -->
<!DOCTYPE svg PUBLIC "-//W3C//DTD SVG 1.1//EN" "http://www.w3.org/Graphics/SVG/1.1/DTD/svg11.dtd">
<svg version="1.1" id="Layer_1" xmlns="http://www.w3.org/2000/svg" xmlns:xlink="http://www.w3.org/1999/xlink" x="0px" y="0px"
	 width="200px" height="200px" viewBox="0 0 200 200" enable-background="new 0 0 200 200" xml:space="preserve">
<path fill="#009519" stroke="#070707" stroke-width="3" stroke-miterlimit="10" d="M16.053,46.858c0,0-8.53,19.563,3.316,38.036
	c0,0,1.301-34.232,5.811-34.232l2.897,0.268c0,0,7.897,10.812,8.06,10.879c0,0-1.18-10.36,0.151-10.51l0.401-0.962
	c0,0,1.32-6.215,5.676-9.898c0,0-11.531,3.088-11.781,3.124c0,0-2.232,0.057-2.603-1.084c0,0-2.712-8.038,10.896-31.548
	c0,0-15.818,4.929-20.795,29.255c0,0-4.58-0.171-4.113,1.41c0,0-1.121-0.35-1.252,0.301c0,0-0.11,0.94,0.42,1.021
	C13.137,42.917,13.934,46.303,16.053,46.858z"/>
<path fill="#009519" stroke="#070707" stroke-width="3" stroke-miterlimit="10" d="M128.417,149.192c0,0,15.421,6.979,25.434,4.53
	l2.662,2.271l-1.284-5.639c0,0,0.487-13.911-6.733-20.072c0,0,58.163-40.441,47.908-111.54c0,0-48.141,77.781-76.053,82.407
	c0,0-26.822-6.313-26.515-10.91c0,0-28.533-25.96-28.85-26.513l8.681,21.533l-20.333-7.834c0,0,50.44,48.727,45.61,49.297
	c0,0-4.574,27.311-94.064,67.71C4.88,194.434,68.906,208.462,128.417,149.192z"/>
<path fill="#009519" stroke="#070707" stroke-width="3" stroke-miterlimit="10" d="M116.97,14.532c0,0-19.565-8.53-38.038,3.316
	c0,0,34.233,1.301,34.233,5.811l-0.268,2.898c0,0-10.812,7.896-10.88,8.059c0,0,10.362-1.18,10.511,0.152l0.963,0.4
	c0,0,6.214,1.32,9.897,5.676c0,0-3.088-11.531-3.124-11.781c0,0-0.057-2.232,1.084-2.602c0,0,8.038-2.713,31.548,10.895
	c0,0-4.929-15.818-29.255-20.795c0,0,0.171-4.58-1.41-4.113c0,0,0.35-1.121-0.301-1.252c0,0-0.94-0.11-1.021,0.42
	C120.91,11.616,117.524,12.413,116.97,14.532z"/>
</svg>
