<?xml version="1.0" encoding="utf-8"?>
<!-- Generator: Adobe Illustrator 15.0.0, SVG Export Plug-In . SVG Version: 6.00 Build 0)  -->
<!DOCTYPE svg PUBLIC "-//W3C//DTD SVG 1.1//EN" "http://www.w3.org/Graphics/SVG/1.1/DTD/svg11.dtd">
<svg version="1.1" id="Layer_1" xmlns="http://www.w3.org/2000/svg" xmlns:xlink="http://www.w3.org/1999/xlink" x="0px" y="0px"
	 width="200px" height="143px" viewBox="0 24.5 200 143" enable-background="new 0 24.5 200 143" xml:space="preserve">
<path fill="#009519" stroke="#020202" stroke-width="2" stroke-miterlimit="10" d="M97.256,26.322c0,0,59.546-0.773,77.72,48.72
	c0,0,7.347,25.133-10.44,44.466l-13.146,45.24l-37.508-18.56c0,0-73.079,10.439-91.252-50.654
	C22.629,95.535,10.255,34.829,97.256,26.322z"/>
<path fill="#FFFFFF" stroke="#020202" stroke-width="2" stroke-miterlimit="10" d="M70.188,75.042c0,0,7.733,9.666,0,20.493
	c0,0-2.706,8.12-19.333,2.321c0,0-9.28-6.187-5.8-18.947C45.055,78.909,53.562,63.056,70.188,75.042z"/>
<path fill="#FFFFFF" stroke="#020202" stroke-width="2" stroke-miterlimit="10" d="M109.629,75.042c0,0,7.733,9.666,0,20.493
	c0,0-2.707,8.12-19.333,2.321c0,0-9.28-6.187-5.8-18.947C84.495,78.909,93.003,63.056,109.629,75.042z"/>
<path fill="#FFFFFF" stroke="#020202" stroke-width="2" stroke-miterlimit="10" d="M149.068,75.042c0,0,7.733,9.666,0,20.493
	c0,0-2.707,8.12-19.333,2.321c0,0-9.279-6.187-5.8-18.947C123.936,78.909,132.442,63.056,149.068,75.042z"/>
</svg>
