<?xml version="1.0" encoding="utf-8"?>
<!-- Generator: Adobe Illustrator 15.0.0, SVG Export Plug-In . SVG Version: 6.00 Build 0)  -->
<!DOCTYPE svg PUBLIC "-//W3C//DTD SVG 1.1//EN" "http://www.w3.org/Graphics/SVG/1.1/DTD/svg11.dtd">
<svg version="1.1" id="Layer_1" xmlns="http://www.w3.org/2000/svg" xmlns:xlink="http://www.w3.org/1999/xlink" x="0px" y="0px"
	 width="200px" height="143px" viewBox="0 24.5 200 143" enable-background="new 0 24.5 200 143" xml:space="preserve">
<g>
	<path fill="none" stroke="#009519" stroke-width="9" stroke-miterlimit="10" d="M35.123,155.012H35.9h126.693
		c0,0,29.729-6.023,32.257-36.92c2.524-30.896-27.596-35.948-27.399-36.142c0.194-0.193,3.69-36.92-25.455-42.36
		c0,0-46.054-12.631-65.679,26.038c0,0-13.02-13.797-29.146-4.081c0,0-10.105,7.19-10.299,20.792c0,0-29.341,5.248-30.896,35.56
		c0,0-2.137,16.515,19.432,34.004C25.408,151.902,34.346,155.012,35.123,155.012z"/>
	
		<text transform="matrix(1 0 0 1 41.7881 125.8438)" stroke="#0F0F0F" stroke-width="2" stroke-miterlimit="10" font-family="'Sansation-Italic'" font-size="46.2967">10 GB</text>
</g>
</svg>
