<?xml version="1.0" encoding="utf-8"?>
<!-- Generator: Adobe Illustrator 15.0.0, SVG Export Plug-In . SVG Version: 6.00 Build 0)  -->
<!DOCTYPE svg PUBLIC "-//W3C//DTD SVG 1.1//EN" "http://www.w3.org/Graphics/SVG/1.1/DTD/svg11.dtd">
<svg version="1.1" id="Layer_1" xmlns="http://www.w3.org/2000/svg" xmlns:xlink="http://www.w3.org/1999/xlink" x="0px" y="0px"
	 width="200px" height="200px" viewBox="0 0 200 200" enable-background="new 0 0 200 200" xml:space="preserve">
<g>
	<g>
		<path fill="#0073C1" stroke="#000000" stroke-width="5" stroke-miterlimit="10" d="M99.275,190.05c0,0,80.631,6.73,90.7-88.214
			c0,0,1.281-83.918-90.7-92.069"/>
		<path fill="#0073C1" stroke="#000000" stroke-width="5" stroke-miterlimit="10" d="M100.43,190.05c0,0-80.631,6.73-90.7-88.214
			c0,0-1.282-83.918,90.7-92.069"/>
	</g>
	<path fill="#028C15" d="M79.047,19.06l13.22,8.44h20.55l8.219-8.536C121.036,18.964,102.747,12.241,79.047,19.06z"/>
	<path fill="#028C15" d="M36.584,55.528l-3.085-5.62l6.369-9.282l31.234-8.718l12.502,4.272l6.248-1.94
		c0,0,25.901,23.006,28.298,29.717c0,0-18.694,14.379-12.94,45.066c0,0-8.151-11.407-10.069-9.062l-7.668,1.873l-4.315,5.613
		l1.438,11.051h6.607l9.616,4h16.63l13.176,2.666l6.115,5.832l2.76,1.516v14.249l-5,11.162v13.54c0,0-3.947,7.557-12.576,8.995
		l-13.535-18.7l-2.889-16.78v-13.656v-6.175l-23.685-0.787L70.5,119.087l-8.775-8.63L57.098,99.96l1.522,11.456L52.908,99.96
		l-5.253-17.791l5.284-19.18l-3.351-7.193L40.96,52.44L36.584,55.528z"/>
	<polygon fill="#028C15" points="179.762,125.903 183.5,112.854 183.5,78.831 171.86,72.5 168.398,72.5 161.791,70.583 
		152.271,80.212 148.5,83.128 148.5,94.27 159.961,106.184 161.354,109.498 173.236,115.885 	"/>
	<polygon fill="#028C15" points="152.5,61.551 157.146,63.948 163.785,58.674 176.692,63.948 168.043,52.92 166.092,47.646 
		155.233,38.056 152.5,41.413 	"/>
</g>
</svg>
