<?xml version="1.0" encoding="utf-8"?>
<!-- Generator: Adobe Illustrator 15.0.0, SVG Export Plug-In . SVG Version: 6.00 Build 0)  -->
<!DOCTYPE svg PUBLIC "-//W3C//DTD SVG 1.1//EN" "http://www.w3.org/Graphics/SVG/1.1/DTD/svg11.dtd">
<svg version="1.1" id="Layer_1" xmlns="http://www.w3.org/2000/svg" xmlns:xlink="http://www.w3.org/1999/xlink" x="0px" y="0px"
	 width="200px" height="200px" viewBox="0 0 200 200" enable-background="new 0 0 200 200" xml:space="preserve">
<g>
	<g>
		<path fill="#009519" stroke="#000000" stroke-width="5" stroke-miterlimit="10" d="M48.419,85.613H31.935l-3.556,6.788v98.26
			l2.909,3.233h140.926l2.586-2.91V90.461l-4.847-4.848h-14.546c0,0,10.665-79.514-53.656-80.483
			C101.751,5.13,41.631-1.011,48.419,85.613z"/>
		<path fill="#EDF7F0" stroke="#000000" stroke-width="5" stroke-miterlimit="10" d="M133.424,84.916
			c10.992-63.675-32.644-59.797-32.644-59.797c-42.02,0-31.676,59.797-31.676,59.797H133.424z"/>
	</g>
	<path fill="#FFFFFF" stroke="#000000" stroke-width="3" stroke-miterlimit="10" d="M90.505,162.203v-2.312l5.368-16.38
		c0,0-8.884-2.684-7.774-12.68c0,0,0.926-10.917,13.235-11.383c0,0,12.492,0.371,13.326,12.864c0,0,1.018,7.589-7.867,11.198
		l5.273,15.361l0.094,3.331H90.505z"/>
</g>
</svg>
