<?xml version="1.0" encoding="utf-8"?>
<!-- Generator: Adobe Illustrator 15.0.0, SVG Export Plug-In . SVG Version: 6.00 Build 0)  -->
<!DOCTYPE svg PUBLIC "-//W3C//DTD SVG 1.1//EN" "http://www.w3.org/Graphics/SVG/1.1/DTD/svg11.dtd">
<svg version="1.1" id="Layer_1" xmlns="http://www.w3.org/2000/svg" xmlns:xlink="http://www.w3.org/1999/xlink" x="0px" y="0px"
	 width="200px" height="143px" viewBox="0 24.5 200 143" enable-background="new 0 24.5 200 143" xml:space="preserve">
<g>
	<g>
		<path fill="#009519" stroke="#0F0F0F" stroke-width="2" stroke-miterlimit="10" d="M100.738,72.905H89.232V61.4H69.884v11.505
			l-27.718,47.591c0,0-4.707,9.937-5.229,17.258v23.533h63.785"/>
		<path fill="#009519" stroke="#0F0F0F" stroke-width="2" stroke-miterlimit="10" d="M100.738,72.905h11.506V61.4h19.35v11.505
			l27.716,47.591c0,0,4.706,9.937,5.23,17.258v23.533h-63.784"/>
	</g>
	
		<rect x="77.205" y="87.549" fill="#FFFFFF" stroke="#0F0F0F" stroke-width="2" stroke-miterlimit="10" width="10.459" height="7.827"/>
	
		<rect x="95.509" y="87.549" fill="#FFFFFF" stroke="#0F0F0F" stroke-width="2" stroke-miterlimit="10" width="10.459" height="7.827"/>
	
		<rect x="113.813" y="87.549" fill="#FFFFFF" stroke="#0F0F0F" stroke-width="2" stroke-miterlimit="10" width="10.458" height="7.827"/>
	
		<rect x="113.813" y="100.1" fill="#FFFFFF" stroke="#0F0F0F" stroke-width="2" stroke-miterlimit="10" width="10.458" height="7.828"/>
	
		<rect x="77.205" y="112.913" fill="#FFFFFF" stroke="#0F0F0F" stroke-width="2" stroke-miterlimit="10" width="10.459" height="7.826"/>
	
		<rect x="94.986" y="112.913" fill="#FFFFFF" stroke="#0F0F0F" stroke-width="2" stroke-miterlimit="10" width="10.458" height="7.826"/>
	
		<rect x="113.813" y="112.913" fill="#FFFFFF" stroke="#0F0F0F" stroke-width="2" stroke-miterlimit="10" width="10.458" height="7.826"/>
	
		<rect x="77.205" y="100.1" fill="#FFFFFF" stroke="#0F0F0F" stroke-width="2" stroke-miterlimit="10" width="10.459" height="7.828"/>
	
		<rect x="95.492" y="100.1" fill="#FFFFFF" stroke="#0F0F0F" stroke-width="2" stroke-miterlimit="10" width="10.458" height="7.828"/>
	<path fill="#009519" stroke="#0F0F0F" stroke-width="2" stroke-miterlimit="10" d="M100.738,28.977c0,0-56.742,3.138-71.123,12.551
		c0,0-7.534,14.12-10.173,26.148c0,0,20.133,8.368,40.648-4.446c0,0-4.327-17.52,40.648-15.166"/>
	<path fill="#009519" stroke="#0F0F0F" stroke-width="2" stroke-miterlimit="10" d="M100.738,28.977c0,0,56.741,3.138,71.124,12.551
		c0,0,7.532,14.12,10.173,26.148c0,0-20.135,8.368-40.648-4.446c0,0,4.326-17.52-40.648-15.166"/>
	<path fill="#009519" stroke="#0F0F0F" stroke-width="2" stroke-miterlimit="10" d="M61.539,70.065c0,0,0.867,23.837-20.93,22.442
		c0,0-22.46,4.385-20.907-18.52C19.702,73.987,38.266,83.243,61.539,70.065z"/>
	<path fill="#009519" stroke="#0F0F0F" stroke-width="2" stroke-miterlimit="10" d="M140.97,67.536c0,0-0.867,23.838,20.933,22.442
		c0,0,22.457,4.385,20.905-18.519C182.808,71.459,164.244,80.713,140.97,67.536z"/>
</g>
</svg>
