<?xml version="1.0" encoding="utf-8"?>
<!-- Generator: Adobe Illustrator 15.0.0, SVG Export Plug-In . SVG Version: 6.00 Build 0)  -->
<!DOCTYPE svg PUBLIC "-//W3C//DTD SVG 1.1//EN" "http://www.w3.org/Graphics/SVG/1.1/DTD/svg11.dtd">
<svg version="1.1" id="Layer_1" xmlns="http://www.w3.org/2000/svg" xmlns:xlink="http://www.w3.org/1999/xlink" x="0px" y="0px"
	 width="200px" height="143px" viewBox="0 24.5 200 143" enable-background="new 0 24.5 200 143" xml:space="preserve">
<path fill="#009519" stroke="#050505" stroke-width="2" stroke-miterlimit="10" d="M104.126,70.638c0,0-6.703-35.061,31.04-38.871
	c0,0,14.815-0.635,22.927,9.947c0,0,11.288-0.705,20.105-6.702c0,0-4.232,11.209-11.64,16.187c0,0,11.287-0.666,16.577-4.546
	c0,0-8.464,12.698-15.519,16.578c0,0-2.117,49.029-27.161,68.429c0,0-47.133,50.793-114.394,14.109c0,0,27.976,2.116,47.376-13.757
	c0,0-22.575-3.174-28.924-21.869c0,0,7.407,1.412,12.698-1.41c0,0-22.927-7.408-24.691-31.041c0,0,9.17,4.585,14.109,3.527
	c0,0-24.69-19.047-9.171-43.385C37.46,37.834,62.152,71.696,104.126,70.638z"/>
</svg>
